<?xml version="1.0" encoding="UTF-8"?>
<svg version="1.1" xmlns="http://www.w3.org/2000/svg" width="500" height="500">
<path d="M0 0 C165 0 330 0 500 0 C500 165 500 330 500 500 C335 500 170 500 0 500 C0 335 0 170 0 0 Z " fill="#FEFEFE" transform="translate(0,0)"/>
<path d="M0 0 C1.77697266 0.10634766 1.77697266 0.10634766 3.58984375 0.21484375 C16.60544271 1.51786772 29.48374095 6.92807989 39 16 C39.74507813 16.69351563 40.49015625 17.38703125 41.2578125 18.1015625 C53.46859299 30.4779129 58.93384553 46.57891075 59.375 63.75 C58.87945782 100.33605616 39.47390534 132.00701358 14 157 C10.46293376 160.19140916 6.79862199 163.12773748 3 166 C2.03449219 166.75796875 1.06898438 167.5159375 0.07421875 168.296875 C-17.65247483 182 -17.65247483 182 -23 182 C-23.0928125 183.7325 -23.0928125 183.7325 -23.1875 185.5 C-23.95867931 191.62598775 -27.01458166 196.06682951 -31.375 200.3125 C-38.16217673 204.67568504 -43.92155641 206.21233305 -52 205 C-59.08300334 202.38025904 -63.04013819 198.42975817 -66.75 191.9375 C-69.22826501 185.66653107 -69.19530654 177.89512643 -66.5625 171.6875 C-63.4221131 166.28784194 -57.88584438 161.96194813 -52 160 C-44.9638566 159.40891849 -39.39165438 159.97849066 -33 163 C-32.01 163.99 -32.01 163.99 -31 165 C-24.26351858 165.05071379 -20.73532295 161.9145584 -15.8125 157.625 C-14.423477 156.45016614 -13.03416326 155.27567594 -11.64453125 154.1015625 C-11.03971924 153.57900879 -10.43490723 153.05645508 -9.81176758 152.51806641 C-4.06517036 147.70303588 -4.06517036 147.70303588 0.4375 147.625 C4.22923514 147.33765269 4.88957212 147.09202323 8 144.5 C8.66 143.675 9.32 142.85 10 142 C10.33 141.67 10.66 141.34 11 141 C11 139.72125 11 138.4425 11 137.125 C11.59253486 131.38818518 14.62290886 128.48832628 18.32421875 124.2734375 C26.99302398 114.06157849 33.3393011 101.47377991 38 89 C38.38800781 87.98550781 38.77601563 86.97101563 39.17578125 85.92578125 C45.20213478 69.16156142 47.56828117 47.61877765 40 31 C33.69144575 18.34942436 24.24036002 11.43023453 11 7 C10.09636719 6.6803125 9.19273437 6.360625 8.26171875 6.03125 C-7.05554268 1.55421553 -25.29533176 3.21971372 -41 5 C-41 4.67 -41 4.34 -41 4 C-27.26482154 1.39137411 -14.00091128 -0.90467427 0 0 Z " fill="#40BEEC" transform="translate(305,153)"/>
<path d="M0 0 C0.82628906 0.54527344 1.65257812 1.09054688 2.50390625 1.65234375 C6.74409149 4.33755444 9.7606113 4.4841722 14.69140625 4.19140625 C21.53840952 4.07879106 26.57105493 7.80041902 31.3671875 12.3515625 C36.41120242 17.69705878 36.60797848 22.86400129 36.40625 29.96484375 C35.57764054 37.73662906 31.80285956 41.88880632 25.96875 46.8046875 C20.40676685 50.74490144 12.55351752 49.84952562 6.06640625 49.15234375 C0.10930173 46.79074813 -4.0185222 42.86588399 -6.93359375 37.15234375 C-8.94910444 31.71046489 -10.17395844 25.66671036 -8.18359375 20.02734375 C-7.82799553 17.36035708 -8.90478835 15.81847018 -10.46875 13.72265625 C-15.43069047 8.40345607 -21.93632058 5.54074371 -28.55859375 2.83984375 C-29.17968018 2.58525391 -29.8007666 2.33066406 -30.44067383 2.06835938 C-41.62477058 -2.27796863 -58.46137556 -3.13166441 -69.8671875 1.11328125 C-81.72034292 7.07346904 -87.92431106 17.26175263 -92.93359375 29.15234375 C-97.63314841 44.40637999 -95.4135406 59.50594036 -89.93359375 74.15234375 C-89.22344675 76.47594472 -88.57503131 78.80839903 -87.93359375 81.15234375 C-99.30418347 80.00363117 -99.30418347 80.00363117 -102.76953125 76.06640625 C-104.15232175 73.13348118 -105.06964689 70.27865991 -105.93359375 67.15234375 C-106.3203125 65.94835937 -106.70703125 64.744375 -107.10546875 63.50390625 C-111.41067765 49.28645352 -112.13101237 33.92438513 -105.93359375 20.15234375 C-103.83499695 16.29331267 -101.50601652 12.71007525 -98.93359375 9.15234375 C-98.21171875 8.12109375 -97.48984375 7.08984375 -96.74609375 6.02734375 C-70.99329732 -22.98635872 -30.23546355 -19.0431082 0 0 Z " fill="#818181" transform="translate(275.93359375,172.84765625)"/>
<path d="M0 0 C6.93 0 13.86 0 21 0 C21 6.6 21 13.2 21 20 C27.6 20 34.2 20 41 20 C41 26.93 41 33.86 41 41 C34.4 41 27.8 41 21 41 C21 44.3 21 47.6 21 51 C20.25234375 51.02578125 19.5046875 51.0515625 18.734375 51.078125 C12.65672659 51.28989423 12.65672659 51.28989423 7.375 53.9375 C5.97803552 55.94056669 5.97803552 55.94056669 5 58 C3.35 58 1.7 58 0 58 C0 52.06 0 46.12 0 40 C-6.6 40 -13.2 40 -20 40 C-20.0309375 35.3284375 -20.0309375 35.3284375 -20.0625 30.5625 C-20.071604 29.57967041 -20.08070801 28.59684082 -20.09008789 27.58422852 C-20.09258545 26.81522217 -20.09508301 26.04621582 -20.09765625 25.25390625 C-20.10551147 24.06776733 -20.10551147 24.06776733 -20.11352539 22.85766602 C-20 21 -20 21 -19 20 C-17.58429877 19.91348389 -16.164405 19.89295096 -14.74609375 19.90234375 C-13.9770874 19.90484131 -13.20808105 19.90733887 -12.41577148 19.90991211 C-11.43294189 19.91901611 -10.4501123 19.92812012 -9.4375 19.9375 C-4.7659375 19.9684375 -4.7659375 19.9684375 0 20 C0 13.4 0 6.8 0 0 Z " fill="#808080" transform="translate(225,198)"/>
<path d="M0 0 C3.625 0.375 3.625 0.375 7 1 C7.33 3.31 7.66 5.62 8 8 C8.928125 7.95875 9.85625 7.9175 10.8125 7.875 C14 8 14 8 17 10 C17.99 9.34 18.98 8.68 20 8 C23.14453125 7.62890625 23.14453125 7.62890625 26.8125 7.5625 C28.01519531 7.52253906 29.21789062 7.48257812 30.45703125 7.44140625 C33.9919889 7.99873695 36.2444521 8.78272526 38.88598633 11.25952148 C41.2137268 14.89626525 40.64739461 19.08758289 40.4375 23.25 C40.41880859 24.17296875 40.40011719 25.0959375 40.38085938 26.046875 C40.19705452 32.80294548 40.19705452 32.80294548 39 34 C36.0625 34.1875 36.0625 34.1875 33 34 C32.34 33.34 31.68 32.68 31 32 C30.505 32.515625 30.01 33.03125 29.5 33.5625 C25.68876679 35.7539591 23.26073027 34.89337893 19 34 C18.34 33.34 17.68 32.68 17 32 C16.360625 32.515625 15.72125 33.03125 15.0625 33.5625 C10.78129427 35.57204555 7.48529553 35.40317564 3 34 C-0.82557317 31.18937481 -0.82557317 31.18937481 -2 28 C-2.39421218 23.63254399 -2.29185869 19.37139458 -2 15 C-3.32 15 -4.64 15 -6 15 C-5.97679687 16.20398438 -5.95359375 17.40796875 -5.9296875 18.6484375 C-5.91093137 20.22395215 -5.89273101 21.79947348 -5.875 23.375 C-5.84986328 24.56609375 -5.84986328 24.56609375 -5.82421875 25.78125 C-5.80664527 27.85492015 -5.89664832 29.92883241 -6 32 C-8 34 -8 34 -11 34.25 C-14 34 -14 34 -16 32 C-16.25878906 29.78515625 -16.25878906 29.78515625 -16.265625 27.0625 C-16.26820313 26.08539063 -16.27078125 25.10828125 -16.2734375 24.1015625 C-16.26570312 23.07804687 -16.25796875 22.05453125 -16.25 21 C-16.25773438 19.97648437 -16.26546875 18.95296875 -16.2734375 17.8984375 C-16.27085937 16.92132813 -16.26828125 15.94421875 -16.265625 14.9375 C-16.26336914 14.03902344 -16.26111328 13.14054687 -16.25878906 12.21484375 C-16 10 -16 10 -14 8 C-11.1796875 7.8046875 -11.1796875 7.8046875 -7.875 7.875 C-6.77929688 7.89304687 -5.68359375 7.91109375 -4.5546875 7.9296875 C-3.71164063 7.95289063 -2.86859375 7.97609375 -2 8 C-2.04125 7.05125 -2.0825 6.1025 -2.125 5.125 C-2 2 -2 2 0 0 Z " fill="#45BFEC" transform="translate(252,260)"/>
<path d="M0 0 C3.33024803 -0.66356375 6.73662983 -0.4628207 10.125 -0.4375 C11.51332031 -0.4674707 11.51332031 -0.4674707 12.9296875 -0.49804688 C20.04605057 -0.49302119 25.54183494 0.83001536 30.875 5.71875 C34.60071691 11.61780177 34.86924803 17.15225723 34 24 C32.08675358 29.84603072 28.32658377 33.0360205 23.09985352 36.12182617 C19.21526792 37.74638778 15.09056698 37.32725859 10.9375 37.3125 C10.02677734 37.32861328 9.11605469 37.34472656 8.17773438 37.36132812 C7.30310547 37.36197266 6.42847656 37.36261719 5.52734375 37.36328125 C4.33226196 37.36775269 4.33226196 37.36775269 3.11303711 37.37231445 C1 37 1 37 -0.76025391 35.9128418 C-2.65445053 32.99022846 -2.37142187 30.48287228 -2.36328125 27.03125 C-2.36377975 26.35453247 -2.36427826 25.67781494 -2.36479187 24.98059082 C-2.36245423 23.55164652 -2.35274383 22.12269788 -2.33618164 20.69384766 C-2.3125838 18.50776313 -2.31562295 16.32289833 -2.32226562 14.13671875 C-2.27924282 3.41886422 -2.27924282 3.41886422 0 0 Z " fill="#42BFEC" transform="translate(158,257)"/>
<path d="M0 0 C0.87785156 0.00515625 1.75570312 0.0103125 2.66015625 0.015625 C3.53542969 0.01046875 4.41070312 0.0053125 5.3125 0 C7.72265625 0.265625 7.72265625 0.265625 10.72265625 2.265625 C11.38265625 1.605625 12.04265625 0.945625 12.72265625 0.265625 C15.72265625 0.015625 15.72265625 0.015625 18.72265625 0.265625 C22.34388923 3.88685798 21.09216194 9.62019358 21.09765625 14.515625 C21.12214844 15.64871094 21.14664063 16.78179687 21.171875 17.94921875 C21.20926328 28.57995349 21.20926328 28.57995349 16.72265625 33.265625 C13.04540216 36.13847976 10.34299403 36.65473774 5.72265625 36.578125 C4.20671875 36.57232422 4.20671875 36.57232422 2.66015625 36.56640625 C-0.59324979 36.23327824 -3.88123214 35.66173661 -6.27734375 33.265625 C-6.27734375 31.615625 -6.27734375 29.965625 -6.27734375 28.265625 C-1.32734375 28.265625 3.62265625 28.265625 8.72265625 28.265625 C9.05265625 26.945625 9.38265625 25.625625 9.72265625 24.265625 C9.06265625 24.595625 8.40265625 24.925625 7.72265625 25.265625 C3.21536974 25.80579097 -0.22728498 25.86885025 -4.21484375 23.578125 C-7.89080789 19.45658945 -8.7313647 15.81163199 -8.60546875 10.26171875 C-7.89219284 5.92262361 -4.57688347 0.5338389 0 0 Z " fill="#43BFEC" transform="translate(213.27734375,267.734375)"/>
<path d="M0 0 C5.56818182 0.56818182 5.56818182 0.56818182 7 2 C7.1584265 4.0708472 7.25124422 6.14678029 7.31640625 8.22265625 C7.35830078 9.48271484 7.40019531 10.74277344 7.44335938 12.04101562 C7.48317596 13.38150736 7.52288814 14.7220022 7.5625 16.0625 C7.60568042 17.40691523 7.64929456 18.7513166 7.69335938 20.09570312 C7.79985358 23.3970234 7.9018646 26.69842236 8 30 C9.65 30.33 11.3 30.66 13 31 C13.04254356 32.99954746 13.04080783 35.00041636 13 37 C11.34905878 38.65094122 9.45514063 38.28867693 7.1875 38.375 C6.31480469 38.42398438 5.44210937 38.47296875 4.54296875 38.5234375 C2 38 2 38 -0.13012695 35.91723633 C-2.46053564 32.28150667 -2.48895303 30.0956719 -2.4609375 25.80078125 C-2.46002106 25.12452194 -2.45910461 24.44826263 -2.4581604 23.75151062 C-2.45214568 22.33028084 -2.43646363 20.90906248 -2.41162109 19.48803711 C-2.37493452 17.30861002 -2.37060321 15.13087663 -2.37109375 12.95117188 C-2.29541552 2.29541552 -2.29541552 2.29541552 0 0 Z " fill="#3FBDEC" transform="translate(297,256)"/>
<path d="M0 0 C10 0 10 0 13.0625 1.875 C16.30561647 5.43196646 16.33412662 8.07414491 16.2890625 12.73828125 C15.86115823 16.08634301 14.44926739 17.76066981 12 20 C9 21 9 21 0 21 C0 14.07 0 7.14 0 0 Z " fill="#FBFDFE" transform="translate(166,265)"/>
<path d="M0 0 C3 0.25 3 0.25 5 2.25 C5.25878906 4.46484375 5.25878906 4.46484375 5.265625 7.1875 C5.26820313 8.16460937 5.27078125 9.14171875 5.2734375 10.1484375 C5.26570312 11.17195313 5.25796875 12.19546875 5.25 13.25 C5.25773438 14.27351563 5.26546875 15.29703125 5.2734375 16.3515625 C5.27085937 17.32867187 5.26828125 18.30578125 5.265625 19.3125 C5.26336914 20.21097656 5.26111328 21.10945313 5.25878906 22.03515625 C5 24.25 5 24.25 3 26.25 C0 26.5 0 26.5 -3 26.25 C-5.53054337 23.71945663 -5.25683229 22.81451118 -5.265625 19.3125 C-5.26820313 18.33539063 -5.27078125 17.35828125 -5.2734375 16.3515625 C-5.26570312 15.32804687 -5.25796875 14.30453125 -5.25 13.25 C-5.25773438 12.22648437 -5.26546875 11.20296875 -5.2734375 10.1484375 C-5.27085937 9.17132813 -5.26828125 8.19421875 -5.265625 7.1875 C-5.26336914 6.28902344 -5.26111328 5.39054687 -5.25878906 4.46484375 C-4.83027147 0.79737999 -3.55067437 0.29588953 0 0 Z " fill="#48C1ED" transform="translate(199,267.75)"/>
<path d="M0 0 C0.99 0.66 1.98 1.32 3 2 C5.9824577 2.02415584 5.9824577 2.02415584 9.1875 1.625 C10.27417969 1.51414062 11.36085938 1.40328125 12.48046875 1.2890625 C13.72763672 1.14597656 13.72763672 1.14597656 15 1 C15.33 2.65 15.66 4.3 16 6 C14.75283203 6.07347656 14.75283203 6.07347656 13.48046875 6.1484375 C12.39378906 6.22320312 11.30710937 6.29796875 10.1875 6.375 C9.10855469 6.44460938 8.02960938 6.51421875 6.91796875 6.5859375 C3.81373814 6.81195733 3.81373814 6.81195733 1 9 C0.27034634 11.56282742 0.27034634 11.56282742 0 14 C-1.99954746 14.04254356 -4.00041636 14.04080783 -6 14 C-7 13 -7 13 -7.09765625 10.49609375 C-7.08605469 9.48675781 -7.07445312 8.47742188 -7.0625 7.4375 C-7.05347656 6.42558594 -7.04445313 5.41367187 -7.03515625 4.37109375 C-7.02355469 3.58863281 -7.01195312 2.80617188 -7 2 C-3.6875 0.875 -3.6875 0.875 0 0 Z " fill="#F3FAFD" transform="translate(267,273)"/>
<path d="M0 0 C2.375 0.6875 2.375 0.6875 3.375 1.6875 C3.64814815 7.42361111 3.64814815 7.42361111 3.375 9.6875 C1.375 11.6875 1.375 11.6875 -1.125 11.9375 C-3.625 11.6875 -3.625 11.6875 -5.625 9.6875 C-5.92578125 7.8125 -5.92578125 7.8125 -5.9375 5.6875 C-5.95425781 4.98625 -5.97101563 4.285 -5.98828125 3.5625 C-5.86839844 2.94375 -5.74851563 2.325 -5.625 1.6875 C-2.625 -0.3125 -2.625 -0.3125 0 0 Z " fill="#F7FCFE" transform="translate(220.625,274.3125)"/>
<path d="M0 0 C3 0.25 3 0.25 5 2.25 C5.25 4.75 5.25 4.75 5 7.25 C3 9.25 3 9.25 0 9.5 C-3 9.25 -3 9.25 -5 7.25 C-5.25 4.75 -5.25 4.75 -5 2.25 C-3 0.25 -3 0.25 0 0 Z " fill="#46C0EC" transform="translate(241,254.75)"/>
<path d="M0 0 C3 0.25 3 0.25 5 2.25 C5.25 4.75 5.25 4.75 5 7.25 C3 9.25 3 9.25 0 9.5 C-3 9.25 -3 9.25 -5 7.25 C-5.25 4.75 -5.25 4.75 -5 2.25 C-3 0.25 -3 0.25 0 0 Z " fill="#46C0EC" transform="translate(199,254.75)"/>
<path d="M0 0 C0.66 0 1.32 0 2 0 C2 0.66 2 1.32 2 2 C3.175625 1.9071875 3.175625 1.9071875 4.375 1.8125 C5.674375 1.9053125 5.674375 1.9053125 7 2 C9 5 9 5 8.6875 7.625 C8 10 8 10 7 11 C4.66702567 11.04092937 2.33294775 11.04241723 0 11 C0 7.37 0 3.74 0 0 Z " fill="#989898" transform="translate(179,313)"/>
<path d="M0 0 C3 -0.3125 3 -0.3125 6 0 C8 2 8 2 8.25 4.5 C8 7 8 7 6 9 C2.375 8.625 2.375 8.625 -1 8 C-1.625 5.6875 -1.625 5.6875 -2 3 C-1.34 2.01 -0.68 1.02 0 0 Z " fill="#979797" transform="translate(207,315)"/>
<path d="M0 0 C1.670625 0.061875 1.670625 0.061875 3.375 0.125 C3.375 3.095 3.375 6.065 3.375 9.125 C0 9.25 0 9.25 -3.625 9.125 C-5.625 7.125 -5.625 7.125 -5.875 4.625 C-5.45054733 0.38047335 -4.12667778 0.14229923 0 0 Z " fill="#8C8C8C" transform="translate(170.625,314.875)"/>
<path d="M0 0 C0.33 1.65 0.66 3.3 1 5 C-0.98 5 -2.96 5 -5 5 C-5 5.66 -5 6.32 -5 7 C-3.02 7 -1.04 7 1 7 C0.67 7.66 0.34 8.32 0 9 C-2.31 8.67 -4.62 8.34 -7 8 C-7 5.69 -7 3.38 -7 1 C-4.53721199 -0.231394 -2.7204945 -0.07159196 0 0 Z " fill="#898989" transform="translate(234,315)"/>
<path d="M0 0 C1.670625 0.061875 1.670625 0.061875 3.375 0.125 C3.705 1.115 4.035 2.105 4.375 3.125 C3.405625 2.939375 2.43625 2.75375 1.4375 2.5625 C0.426875 2.418125 -0.58375 2.27375 -1.625 2.125 C-2.92133621 3.19145115 -2.92133621 3.19145115 -2.6875 5.6875 C-2.666875 6.491875 -2.64625 7.29625 -2.625 8.125 C1.00385324 8.27649298 1.00385324 8.27649298 4.375 7.125 C4.375 8.115 4.375 9.105 4.375 10.125 C1.61249964 11.50625018 -0.57231099 11.31579306 -3.625 11.125 C-5.625 9.125 -5.625 9.125 -5.875 5.625 C-5.52784563 0.76483889 -4.87441969 0.16808344 0 0 Z " fill="#8E8E8E" transform="translate(197.625,312.875)"/>
<path d="M0 0 C0.66 0 1.32 0 2 0 C2 2.97 2 5.94 2 9 C4.31 9 6.62 9 9 9 C9 9.66 9 10.32 9 11 C6.03 11 3.06 11 0 11 C0 7.37 0 3.74 0 0 Z " fill="#8F8F8F" transform="translate(153,313)"/>
<path d="M0 0 C1.98 0 3.96 0 6 0 C5.67 1.65 5.34 3.3 5 5 C3.02 5 1.04 5 -1 5 C-0.67 3.35 -0.34 1.7 0 0 Z " fill="#F4FBFE" transform="translate(277,283)"/>
<path d="M0 0 C1.65 0 3.3 0 5 0 C5 0.66 5 1.32 5 2 C4.34 2 3.68 2 3 2 C3 4.31 3 6.62 3 9 C2.01 9 1.02 9 0 9 C0 6.03 0 3.06 0 0 Z " fill="#A3A3A3" transform="translate(218,315)"/>
<path d="M0 0 C0.66 0 1.32 0 2 0 C2 0.66 2 1.32 2 2 C3.65 2 5.3 2 7 2 C7.33 3.32 7.66 4.64 8 6 C5.03 5.505 5.03 5.505 2 5 C1.34 5.99 0.68 6.98 0 8 C0 5.36 0 2.72 0 0 Z " fill="#8B8B8B" transform="translate(179,313)"/>
<path d="M0 0 C0.33 0.66 0.66 1.32 1 2 C0.67 2.66 0.34 3.32 0 4 C-1.98 4 -3.96 4 -6 4 C-6.33 3.01 -6.66 2.02 -7 1 C-4.53721199 -0.231394 -2.7204945 -0.07159196 0 0 Z " fill="#B1B1B1" transform="translate(234,315)"/>
<path d="M0 0 C2.475 0.495 2.475 0.495 5 1 C4.67 2.32 4.34 3.64 4 5 C2.68 5 1.36 5 0 5 C0 3.35 0 1.7 0 0 Z " fill="#F4F4F4" transform="translate(208,317)"/>
<path d="M0 0 C1.32 0 2.64 0 4 0 C4 1.65 4 3.3 4 5 C2.35 4.67 0.7 4.34 -1 4 C-0.67 2.68 -0.34 1.36 0 0 Z " fill="#F4F4F4" transform="translate(168,317)"/>
<path d="M0 0 C3.625 -0.1875 3.625 -0.1875 7 0 C7.33 0.99 7.66 1.98 8 3 C5.03 2.505 5.03 2.505 2 2 C1.34 3.65 0.68 5.3 0 7 C-0.66 5.68 -1.32 4.36 -2 3 C-1.34 2.01 -0.68 1.02 0 0 Z " fill="#959595" transform="translate(194,313)"/>
<path d="M0 0 C1.32 0 2.64 0 4 0 C4 1.65 4 3.3 4 5 C2.68 5 1.36 5 0 5 C0 3.35 0 1.7 0 0 Z " fill="#F9F9F9" transform="translate(181,317)"/>
<path d="M0 0 C1.98 0 3.96 0 6 0 C6 0.99 6 1.98 6 3 C3.69 3 1.38 3 -1 3 C-0.67 2.01 -0.34 1.02 0 0 Z " fill="#919191" transform="translate(207,315)"/>
</svg>
